# xmcd
#
# Track frame offsets:
#	150
#	16507
#	36078
#	47630
#	63821
#	86025
#	112365
#	128099
#	138672
#	156714
#	171618
#	193114
#	207784
#	222383
#	242513
#	278604
#	294538
#	320090
#
# Disc length: 4610
#
# Revision: 1
# Processed by: cddbd v1.5.1PL0 Copyright (c) Steve Scherf et al.
# Submitted via: CDex 1.50
# Normalized: r0:DSETVAR1,TDELIM( - )
#
DISCID=17120012
DTITLE=Various Artist - Bar Jazz Vol.3 - CD2
DYEAR=2003
DGENRE=Jazz
TTITLE0=Lester Young and Oscar Petterson - I Can't Get Started
TTITLE1=Monica Zetterlund - Come Rain Or Come Shine
TTITLE2=Dinah Washington - Ain't Misbehavin'
TTITLE3=Groover Washington Jr. - Take Five
TTITLE4=Lena Horn - The Man I Love-Live
TTITLE5=Art Pepper - Imagination
TTITLE6=Chet Baker - You Don't Know What Love Is
TTITLE7=Gilberto Gill - Corcovado
TTITLE8=Miles Davis and Quincy Jones - The Duke
TTITLE9=Don Byas - Harvard Blues
TTITLE10=Hiroshima - One Wish
TTITLE11=Dianne Reevers - The Nearness Of You
TTITLE12=earl Klugh - So Many Stars
TTITLE13=Bonie James and Rick Brown - Like Love
TTITLE14=Chick Corea - How Deep Is The Ocean?
TTITLE15=Nina Simone and Carly Simon - I'm A Fool To Want You
TTITLE16=Ralph Towner - Goodbye Por Pie Hat
TTITLE17=Spyro Cyra - Heliopolis
EXTD=YEAR: 2003
EXTT0=
EXTT1=
EXTT2=
EXTT3=
EXTT4=
EXTT5=
EXTT6=
EXTT7=
EXTT8=
EXTT9=
EXTT10=
EXTT11=
EXTT12=
EXTT13=
EXTT14=
EXTT15=
EXTT16=
EXTT17=
PLAYORDER=
